<svg width="1440" height="455" viewBox="0 0 1440 455" fill="none" xmlns="http://www.w3.org/2000/svg">
<path d="M265.638 271.93C265.638 270.141 267.234 268.69 269.203 268.69C271.171 268.69 272.768 270.141 272.768 271.93C272.768 273.718 271.171 275.169 269.203 275.169C267.256 275.169 265.638 273.718 265.638 271.93Z" fill="url(#paint0_linear)"/>
<path d="M269.815 198.492H268.634V270.042H269.815V198.492Z" fill="url(#paint1_linear)"/>
<path d="M103.928 183.824C103.928 182.035 105.525 180.584 107.493 180.584C109.461 180.584 111.058 182.035 111.058 183.824C111.058 185.613 109.461 187.063 107.493 187.063C105.525 187.063 103.928 185.613 103.928 183.824Z" fill="url(#paint2_linear)"/>
<path d="M108.084 110.385H106.903V181.955H108.084V110.385Z" fill="url(#paint3_linear)"/>
<path d="M148.238 107.683C148.238 105.894 149.834 104.443 151.803 104.443C153.771 104.443 155.367 105.894 155.367 107.683C155.367 109.471 153.771 110.922 151.803 110.922C149.834 110.922 148.238 109.471 148.238 107.683Z" fill="url(#paint4_linear)"/>
<path d="M152.415 34.2444H151.234V105.794H152.415V34.2444Z" fill="url(#paint5_linear)"/>
<path d="M183.843 124.119C183.843 122.331 185.439 120.88 187.408 120.88C189.376 120.88 190.972 122.331 190.972 124.119C190.972 125.908 189.376 127.359 187.408 127.359C185.461 127.379 183.843 125.928 183.843 124.119Z" fill="url(#paint6_linear)"/>
<path d="M188.02 50.7009H186.839V122.271H188.02V50.7009Z" fill="url(#paint7_linear)"/>
<path d="M241.93 308.878C241.93 307.089 243.527 305.638 245.495 305.638C247.464 305.638 249.06 307.089 249.06 308.878C249.06 310.666 247.464 312.117 245.495 312.117C243.527 312.117 241.93 310.666 241.93 308.878Z" fill="url(#paint8_linear)"/>
<path d="M246.108 235.439H244.927V306.989H246.108V235.439Z" fill="url(#paint9_linear)"/>
<path d="M297.11 100.488C297.11 98.699 298.706 97.2482 300.674 97.2482C302.643 97.2482 304.239 98.699 304.239 100.488C304.239 102.277 302.643 103.727 300.674 103.727C298.706 103.727 297.11 102.277 297.11 100.488Z" fill="url(#paint10_linear)"/>
<path d="M301.265 27.0695H300.084V98.6195H301.265V27.0695Z" fill="url(#paint11_linear)"/>
<path d="M198.715 97.3079C198.715 95.5191 200.311 94.0682 202.279 94.0682C204.248 94.0682 205.844 95.5191 205.844 97.3079C205.844 99.0966 204.248 100.547 202.279 100.547C200.311 100.547 198.715 99.0966 198.715 97.3079Z" fill="url(#paint12_linear)"/>
<path d="M202.892 59.6646H201.711V95.4396H202.892V59.6646Z" fill="url(#paint13_linear)"/>
<path d="M333.174 277.177C333.174 275.388 334.77 273.937 336.739 273.937C338.707 273.937 340.304 275.388 340.304 277.177C340.304 278.966 338.707 280.417 336.739 280.417C334.792 280.417 333.174 278.966 333.174 277.177Z" fill="url(#paint14_linear)"/>
<path d="M337.351 239.514H336.17V275.289H337.351V239.514Z" fill="url(#paint15_linear)"/>
<path d="M79.4552 27.1887C79.4552 25.4 81.0517 23.9491 83.0201 23.9491C84.9884 23.9491 86.585 25.4 86.585 27.1887C86.585 28.9775 84.9884 30.4284 83.0201 30.4284C81.0736 30.4284 79.4552 28.9775 79.4552 27.1887Z" fill="url(#paint16_linear)"/>
<path d="M83.6325 -10.4546H82.4515V25.3205H83.6325V-10.4546Z" fill="url(#paint17_linear)"/>
<path d="M128.073 87.6089C128.073 85.8201 129.67 84.3693 131.638 84.3693C133.606 84.3693 135.203 85.8201 135.203 87.6089C135.203 89.3976 133.606 90.8485 131.638 90.8485C129.67 90.8485 128.073 89.3976 128.073 87.6089Z" fill="url(#paint18_linear)"/>
<path d="M132.25 49.9457H131.069V85.7207H132.25V49.9457Z" fill="url(#paint19_linear)"/>
<path d="M243.33 38.0405C243.33 36.2518 244.927 34.8009 246.895 34.8009C248.863 34.8009 250.46 36.2518 250.46 38.0405C250.46 39.8293 248.863 41.2802 246.895 41.2802C244.949 41.3 243.33 39.8293 243.33 38.0405Z" fill="url(#paint20_linear)"/>
<path d="M247.507 0.397247H246.326V36.1723H247.507V0.397247Z" fill="url(#paint21_linear)"/>
<path d="M193.728 299.854C193.728 298.065 195.325 296.615 197.293 296.615C199.261 296.615 200.858 298.065 200.858 299.854C200.858 301.643 199.261 303.094 197.293 303.094C195.325 303.094 193.728 301.643 193.728 299.854Z" fill="url(#paint22_linear)"/>
<path d="M197.883 226.416H196.702V297.986H197.883V226.416Z" fill="url(#paint23_linear)"/>
<path d="M72.8504 170.349C72.8504 168.56 74.4469 167.109 76.4153 167.109C78.3836 167.109 79.9802 168.56 79.9802 170.349C79.9802 172.137 78.3836 173.588 76.4153 173.588C74.4469 173.588 72.8504 172.137 72.8504 170.349Z" fill="url(#paint24_linear)"/>
<path d="M77.0276 96.9302H75.8466V168.48H77.0276V96.9302Z" fill="url(#paint25_linear)"/>
<path d="M296.322 261.873C296.322 260.084 297.919 258.633 299.887 258.633C301.855 258.633 303.452 260.084 303.452 261.873C303.452 263.662 301.855 265.113 299.887 265.113C297.919 265.133 296.322 263.682 296.322 261.873Z" fill="url(#paint26_linear)"/>
<path d="M300.478 188.455H299.297V260.025H300.478V188.455Z" fill="url(#paint27_linear)"/>
<path d="M0 145.008C0 143.219 1.59654 141.768 3.56487 141.768C5.53321 141.768 7.12975 143.219 7.12975 145.008C7.12975 146.797 5.53321 148.248 3.56487 148.248C1.59654 148.248 0 146.797 0 145.008Z" fill="url(#paint28_linear)"/>
<path d="M4.15537 71.5697H2.97437V143.14H4.15537V71.5697Z" fill="url(#paint29_linear)"/>
<path d="M124.508 442.159C124.508 440.37 126.105 438.92 128.073 438.92C130.041 438.92 131.638 440.37 131.638 442.159C131.638 443.948 130.041 445.399 128.073 445.399C126.105 445.419 124.508 443.948 124.508 442.159Z" fill="url(#paint30_linear)"/>
<path d="M128.664 193.384H127.483V440.291H128.664V193.384Z" fill="url(#paint31_linear)"/>
<path d="M43.6971 429.042C43.6971 427.253 45.2936 425.802 47.262 425.802C49.2303 425.802 50.8268 427.253 50.8268 429.042C50.8268 430.83 49.2303 432.281 47.262 432.281C45.2936 432.301 43.6971 430.85 43.6971 429.042Z" fill="url(#paint32_linear)"/>
<path d="M47.8743 48.1967H46.6933V427.193H47.8743V48.1967Z" fill="url(#paint33_linear)"/>
<path d="M275.677 300.788C275.677 299 277.273 297.549 279.241 297.549C281.21 297.549 282.806 299 282.806 300.788C282.806 302.577 281.21 304.028 279.241 304.028C277.273 304.028 275.677 302.577 275.677 300.788Z" fill="url(#paint34_linear)"/>
<path d="M279.832 52.0127H278.651V298.92H279.832V52.0127Z" fill="url(#paint35_linear)"/>
<path d="M179.644 373.153C179.644 371.365 181.24 369.914 183.208 369.914C185.177 369.914 186.773 371.365 186.773 373.153C186.773 374.942 185.177 376.393 183.208 376.393C181.24 376.413 179.644 374.942 179.644 373.153Z" fill="url(#paint36_linear)"/>
<path d="M183.821 124.398H182.64V371.305H183.821V124.398Z" fill="url(#paint37_linear)"/>
<path d="M34.2928 353.258C34.2928 351.47 35.8893 350.019 37.8577 350.019C39.826 350.019 41.4225 351.47 41.4225 353.258C41.4225 355.047 39.826 356.498 37.8577 356.498C35.8893 356.498 34.2928 355.047 34.2928 353.258Z" fill="url(#paint38_linear)"/>
<path d="M38.4482 104.483H37.2672V351.39H38.4482V104.483Z" fill="url(#paint39_linear)"/>
<path d="M255.118 181.638C255.118 179.849 256.715 178.398 258.683 178.398C260.652 178.398 262.248 179.849 262.248 181.638C262.248 183.426 260.652 184.877 258.683 184.877C256.715 184.897 255.118 183.446 255.118 181.638Z" fill="url(#paint40_linear)"/>
<path d="M259.296 43.1683H258.115V179.769H259.296V43.1683Z" fill="url(#paint41_linear)"/>
<path d="M96.4704 254.38C96.4704 252.591 98.0669 251.14 100.035 251.14C102.004 251.14 103.6 252.591 103.6 254.38C103.6 256.169 102.004 257.62 100.035 257.62C98.0669 257.62 96.4704 256.169 96.4704 254.38Z" fill="url(#paint42_linear)"/>
<path d="M100.648 115.911H99.4666V252.512H100.648V115.911Z" fill="url(#paint43_linear)"/>
<path d="M1267.03 306.175C1267.03 304.386 1268.62 302.935 1270.59 302.935C1272.56 302.935 1274.16 304.386 1274.16 306.175C1274.16 307.963 1272.56 309.414 1270.59 309.414C1268.62 309.434 1267.03 307.963 1267.03 306.175Z" fill="url(#paint44_linear)"/>
<path d="M1271.18 254.42H1270V304.326H1271.18V254.42Z" fill="url(#paint45_linear)"/>
<path d="M1175.06 233.71C1175.06 231.922 1176.66 230.471 1178.63 230.471C1180.6 230.471 1182.19 231.922 1182.19 233.71C1182.19 235.499 1180.6 236.95 1178.63 236.95C1176.66 236.95 1175.06 235.499 1175.06 233.71Z" fill="url(#paint46_linear)"/>
<path d="M1179.22 102.674H1178.04V231.842H1179.22V102.674Z" fill="url(#paint47_linear)"/>
<path d="M1432.87 253.446C1432.87 251.658 1434.47 250.207 1436.44 250.207C1438.4 250.207 1440 251.658 1440 253.446C1440 255.235 1438.4 256.686 1436.44 256.686C1434.47 256.686 1432.87 255.235 1432.87 253.446Z" fill="url(#paint48_linear)"/>
<path d="M1437.03 122.41H1435.84V251.578H1437.03V122.41Z" fill="url(#paint49_linear)"/>
<path d="M1134.4 122.033C1134.4 120.244 1136 118.793 1137.97 118.793C1139.94 118.793 1141.53 120.244 1141.53 122.033C1141.53 123.821 1139.94 125.272 1137.97 125.272C1136.02 125.292 1134.4 123.841 1134.4 122.033Z" fill="url(#paint50_linear)"/>
<path d="M1138.58 48.6143H1137.4V120.184H1138.58V48.6143Z" fill="url(#paint51_linear)"/>
<path d="M1244.78 178.438C1244.78 176.649 1246.38 175.198 1248.35 175.198C1250.32 175.198 1251.91 176.649 1251.91 178.438C1251.91 180.227 1250.32 181.678 1248.35 181.678C1246.38 181.697 1244.78 180.227 1244.78 178.438Z" fill="url(#paint52_linear)"/>
<path d="M1248.94 105.02H1247.76V176.59H1248.94V105.02Z" fill="url(#paint53_linear)"/>
<path d="M1388.87 154.25C1388.87 152.461 1390.46 151.01 1392.43 151.01C1394.4 151.01 1396 152.461 1396 154.25C1396 156.039 1394.4 157.49 1392.43 157.49C1390.46 157.509 1388.87 156.059 1388.87 154.25Z" fill="url(#paint54_linear)"/>
<path d="M1393.04 80.8317H1391.86V152.382H1393.04V80.8317Z" fill="url(#paint55_linear)"/>
<path d="M1357.64 184.082C1357.64 182.294 1359.23 180.843 1361.2 180.843C1363.17 180.843 1364.77 182.294 1364.77 184.082C1364.77 185.871 1363.17 187.322 1361.2 187.322C1359.23 187.322 1357.64 185.871 1357.64 184.082Z" fill="url(#paint56_linear)"/>
<path d="M1361.81 110.664H1360.63V182.234H1361.81V110.664Z" fill="url(#paint57_linear)"/>
<path d="M1234.31 238.262C1234.31 236.473 1235.91 235.022 1237.87 235.022C1239.84 235.022 1241.44 236.473 1241.44 238.262C1241.44 240.05 1239.84 241.501 1237.87 241.501C1235.91 241.521 1234.31 240.05 1234.31 238.262Z" fill="url(#paint58_linear)"/>
<path d="M1238.49 102.177H1237.31V236.393H1238.49V102.177Z" fill="url(#paint59_linear)"/>
<path d="M1255.06 213.657C1255.06 211.868 1256.66 210.417 1258.63 210.417C1260.6 210.417 1262.19 211.868 1262.19 213.657C1262.19 215.445 1260.6 216.896 1258.63 216.896C1256.66 216.896 1255.06 215.445 1255.06 213.657Z" fill="url(#paint60_linear)"/>
<path d="M1259.24 104.642H1258.06V211.788H1259.24V104.642Z" fill="url(#paint61_linear)"/>
<path d="M1204.19 355.981C1204.19 354.193 1205.79 352.742 1207.76 352.742C1209.73 352.742 1211.32 354.193 1211.32 355.981C1211.32 357.77 1209.73 359.221 1207.76 359.221C1205.81 359.221 1204.19 357.77 1204.19 355.981Z" fill="url(#paint62_linear)"/>
<path d="M1208.37 107.206H1207.19V354.113H1208.37V107.206Z" fill="url(#paint63_linear)"/>
<path d="M1308.19 248.776C1308.19 246.987 1309.78 245.536 1311.75 245.536C1313.72 245.536 1315.32 246.987 1315.32 248.776C1315.32 250.564 1313.72 252.015 1311.75 252.015C1309.78 252.015 1308.19 250.564 1308.19 248.776Z" fill="url(#paint64_linear)"/>
<path d="M1312.36 0H1311.18V246.907H1312.36V0Z" fill="url(#paint65_linear)"/>
<path d="M1362.32 262.589C1362.32 260.8 1363.91 259.349 1365.88 259.349C1367.85 259.349 1369.45 260.8 1369.45 262.589C1369.45 264.377 1367.85 265.828 1365.88 265.828C1363.91 265.828 1362.32 264.377 1362.32 262.589Z" fill="url(#paint66_linear)"/>
<path d="M1366.47 13.8132H1365.29V260.721H1366.47V13.8132Z" fill="url(#paint67_linear)"/>
<path d="M1143.87 410.34C1143.87 408.551 1145.47 407.1 1147.44 407.1C1149.41 407.1 1151 408.551 1151 410.34C1151 412.128 1149.41 413.579 1147.44 413.579C1145.49 413.579 1143.87 412.128 1143.87 410.34Z" fill="url(#paint68_linear)"/>
<path d="M1148.05 161.564H1146.87V408.471H1148.05V161.564Z" fill="url(#paint69_linear)"/>
<path d="M1430.07 207.237H1428.89V454.144H1430.07V207.237Z" fill="url(#paint70_linear)"/>
<path d="M1372.03 312.535C1372.03 310.746 1373.62 309.295 1375.59 309.295C1377.56 309.295 1379.16 310.746 1379.16 312.535C1379.16 314.323 1377.56 315.774 1375.59 315.774C1373.62 315.774 1372.03 314.323 1372.03 312.535Z" fill="url(#paint71_linear)"/>
<path d="M1376.2 63.7591H1375.02V310.666H1376.2V63.7591Z" fill="url(#paint72_linear)"/>
<path d="M1097.23 344.355C1097.23 342.566 1098.82 341.115 1100.79 341.115C1102.76 341.115 1104.35 342.566 1104.35 344.355C1104.35 346.143 1102.76 347.594 1100.79 347.594C1098.82 347.614 1097.23 346.163 1097.23 344.355Z" fill="url(#paint73_linear)"/>
<path d="M1101.38 205.885H1100.2V342.486H1101.38V205.885Z" fill="url(#paint74_linear)"/>
<path d="M1158.68 195.491C1158.68 193.702 1160.28 192.251 1162.25 192.251C1164.21 192.251 1165.81 193.702 1165.81 195.491C1165.81 197.28 1164.21 198.73 1162.25 198.73C1160.28 198.75 1158.68 197.299 1158.68 195.491Z" fill="url(#paint75_linear)"/>
<path d="M1162.86 94.7045H1161.68V193.642H1162.86V94.7045Z" fill="url(#paint76_linear)"/>
<path d="M1353.04 370.093C1353.04 368.304 1354.64 366.853 1356.61 366.853C1358.58 366.853 1360.17 368.304 1360.17 370.093C1360.17 371.882 1358.58 373.332 1356.61 373.332C1354.64 373.332 1353.04 371.882 1353.04 370.093Z" fill="url(#paint77_linear)"/>
<path d="M1357.22 231.604H1356.04V368.205H1357.22V231.604Z" fill="url(#paint78_linear)"/>
<defs>
<linearGradient id="paint0_linear" x1="269.218" y1="253.689" x2="269.218" y2="197.379" gradientUnits="userSpaceOnUse">
<stop stop-color="#184053"/>
<stop offset="1" stop-color="#184053" stop-opacity="0"/>
</linearGradient>
<linearGradient id="paint1_linear" x1="269.221" y1="253.688" x2="269.221" y2="197.38" gradientUnits="userSpaceOnUse">
<stop stop-color="#184053"/>
<stop offset="1" stop-color="#184053" stop-opacity="0"/>
</linearGradient>
<linearGradient id="paint2_linear" x1="107.493" y1="165.582" x2="107.493" y2="109.254" gradientUnits="userSpaceOnUse">
<stop stop-color="#184053"/>
<stop offset="1" stop-color="#184053" stop-opacity="0"/>
</linearGradient>
<linearGradient id="paint3_linear" x1="107.493" y1="165.588" x2="107.493" y2="109.277" gradientUnits="userSpaceOnUse">
<stop stop-color="#184053"/>
<stop offset="1" stop-color="#184053" stop-opacity="0"/>
</linearGradient>
<linearGradient id="paint4_linear" x1="151.817" y1="89.4478" x2="151.817" y2="33.138" gradientUnits="userSpaceOnUse">
<stop stop-color="#184053"/>
<stop offset="1" stop-color="#184053" stop-opacity="0"/>
</linearGradient>
<linearGradient id="paint5_linear" x1="151.817" y1="89.4467" x2="151.817" y2="33.1387" gradientUnits="userSpaceOnUse">
<stop stop-color="#184053"/>
<stop offset="1" stop-color="#184053" stop-opacity="0"/>
</linearGradient>
<linearGradient id="paint6_linear" x1="187.424" y1="105.893" x2="187.424" y2="49.5813" gradientUnits="userSpaceOnUse">
<stop stop-color="#184053"/>
<stop offset="1" stop-color="#184053" stop-opacity="0"/>
</linearGradient>
<linearGradient id="paint7_linear" x1="187.424" y1="105.893" x2="187.424" y2="49.5842" gradientUnits="userSpaceOnUse">
<stop stop-color="#184053"/>
<stop offset="1" stop-color="#184053" stop-opacity="0"/>
</linearGradient>
<linearGradient id="paint8_linear" x1="245.508" y1="290.645" x2="245.508" y2="234.35" gradientUnits="userSpaceOnUse">
<stop stop-color="#184053"/>
<stop offset="1" stop-color="#184053" stop-opacity="0"/>
</linearGradient>
<linearGradient id="paint9_linear" x1="245.509" y1="290.64" x2="245.509" y2="234.332" gradientUnits="userSpaceOnUse">
<stop stop-color="#184053"/>
<stop offset="1" stop-color="#184053" stop-opacity="0"/>
</linearGradient>
<linearGradient id="paint10_linear" x1="300.675" y1="82.2549" x2="300.675" y2="25.9454" gradientUnits="userSpaceOnUse">
<stop stop-color="#184053"/>
<stop offset="1" stop-color="#184053" stop-opacity="0"/>
</linearGradient>
<linearGradient id="paint11_linear" x1="300.674" y1="82.2537" x2="300.674" y2="25.9457" gradientUnits="userSpaceOnUse">
<stop stop-color="#184053"/>
<stop offset="1" stop-color="#184053" stop-opacity="0"/>
</linearGradient>
<linearGradient id="paint12_linear" x1="202.29" y1="79.0777" x2="202.29" y2="22.7683" gradientUnits="userSpaceOnUse">
<stop stop-color="#184053"/>
<stop offset="1" stop-color="#184053" stop-opacity="0"/>
</linearGradient>
<linearGradient id="paint13_linear" x1="202.291" y1="87.2613" x2="202.291" y2="59.1067" gradientUnits="userSpaceOnUse">
<stop stop-color="#184053"/>
<stop offset="1" stop-color="#184053" stop-opacity="0"/>
</linearGradient>
<linearGradient id="paint14_linear" x1="336.755" y1="258.936" x2="336.755" y2="202.626" gradientUnits="userSpaceOnUse">
<stop stop-color="#184053"/>
<stop offset="1" stop-color="#184053" stop-opacity="0"/>
</linearGradient>
<linearGradient id="paint15_linear" x1="336.755" y1="267.119" x2="336.755" y2="238.965" gradientUnits="userSpaceOnUse">
<stop stop-color="#184053"/>
<stop offset="1" stop-color="#184053" stop-opacity="0"/>
</linearGradient>
<linearGradient id="paint16_linear" x1="83.038" y1="8.95796" x2="83.038" y2="-47.3518" gradientUnits="userSpaceOnUse">
<stop stop-color="#184053"/>
<stop offset="1" stop-color="#184053" stop-opacity="0"/>
</linearGradient>
<linearGradient id="paint17_linear" x1="83.0372" y1="17.1417" x2="83.0372" y2="-11.013" gradientUnits="userSpaceOnUse">
<stop stop-color="#184053"/>
<stop offset="1" stop-color="#184053" stop-opacity="0"/>
</linearGradient>
<linearGradient id="paint18_linear" x1="131.653" y1="69.3626" x2="131.653" y2="13.0358" gradientUnits="userSpaceOnUse">
<stop stop-color="#184053"/>
<stop offset="1" stop-color="#184053" stop-opacity="0"/>
</linearGradient>
<linearGradient id="paint19_linear" x1="131.653" y1="77.5527" x2="131.653" y2="49.3981" gradientUnits="userSpaceOnUse">
<stop stop-color="#184053"/>
<stop offset="1" stop-color="#184053" stop-opacity="0"/>
</linearGradient>
<linearGradient id="paint20_linear" x1="246.912" y1="19.8116" x2="246.912" y2="-36.4982" gradientUnits="userSpaceOnUse">
<stop stop-color="#184053"/>
<stop offset="1" stop-color="#184053" stop-opacity="0"/>
</linearGradient>
<linearGradient id="paint21_linear" x1="246.914" y1="27.9943" x2="246.914" y2="-0.157465" gradientUnits="userSpaceOnUse">
<stop stop-color="#184053"/>
<stop offset="1" stop-color="#184053" stop-opacity="0"/>
</linearGradient>
<linearGradient id="paint22_linear" x1="197.302" y1="281.619" x2="197.302" y2="225.309" gradientUnits="userSpaceOnUse">
<stop stop-color="#184053"/>
<stop offset="1" stop-color="#184053" stop-opacity="0"/>
</linearGradient>
<linearGradient id="paint23_linear" x1="197.301" y1="281.62" x2="197.301" y2="225.31" gradientUnits="userSpaceOnUse">
<stop stop-color="#184053"/>
<stop offset="1" stop-color="#184053" stop-opacity="0"/>
</linearGradient>
<linearGradient id="paint24_linear" x1="76.4269" y1="152.114" x2="76.4269" y2="95.8047" gradientUnits="userSpaceOnUse">
<stop stop-color="#184053"/>
<stop offset="1" stop-color="#184053" stop-opacity="0"/>
</linearGradient>
<linearGradient id="paint25_linear" x1="76.4257" y1="152.115" x2="76.4257" y2="95.8073" gradientUnits="userSpaceOnUse">
<stop stop-color="#184053"/>
<stop offset="1" stop-color="#184053" stop-opacity="0"/>
</linearGradient>
<linearGradient id="paint26_linear" x1="299.893" y1="243.643" x2="299.893" y2="187.316" gradientUnits="userSpaceOnUse">
<stop stop-color="#184053"/>
<stop offset="1" stop-color="#184053" stop-opacity="0"/>
</linearGradient>
<linearGradient id="paint27_linear" x1="299.894" y1="243.648" x2="299.894" y2="187.339" gradientUnits="userSpaceOnUse">
<stop stop-color="#184053"/>
<stop offset="1" stop-color="#184053" stop-opacity="0"/>
</linearGradient>
<linearGradient id="paint28_linear" x1="3.57209" y1="126.766" x2="3.57209" y2="70.4564" gradientUnits="userSpaceOnUse">
<stop stop-color="#184053"/>
<stop offset="1" stop-color="#184053" stop-opacity="0"/>
</linearGradient>
<linearGradient id="paint29_linear" x1="3.57296" y1="126.766" x2="3.57296" y2="70.4569" gradientUnits="userSpaceOnUse">
<stop stop-color="#184053"/>
<stop offset="1" stop-color="#184053" stop-opacity="0"/>
</linearGradient>
<linearGradient id="paint30_linear" x1="128.081" y1="410.405" x2="128.081" y2="310.124" gradientUnits="userSpaceOnUse">
<stop stop-color="#184053"/>
<stop offset="1" stop-color="#184053" stop-opacity="0"/>
</linearGradient>
<linearGradient id="paint31_linear" x1="128.082" y1="385.312" x2="128.082" y2="200.839" gradientUnits="userSpaceOnUse">
<stop stop-color="#184053"/>
<stop offset="1" stop-color="#184053" stop-opacity="0"/>
</linearGradient>
<linearGradient id="paint32_linear" x1="47.2744" y1="397.293" x2="47.2744" y2="297.011" gradientUnits="userSpaceOnUse">
<stop stop-color="#184053"/>
<stop offset="1" stop-color="#184053" stop-opacity="0"/>
</linearGradient>
<linearGradient id="paint33_linear" x1="47.2755" y1="342.785" x2="47.2755" y2="59.6264" gradientUnits="userSpaceOnUse">
<stop stop-color="#184053"/>
<stop offset="1" stop-color="#184053" stop-opacity="0"/>
</linearGradient>
<linearGradient id="paint34_linear" x1="279.24" y1="269.031" x2="279.24" y2="168.749" gradientUnits="userSpaceOnUse">
<stop stop-color="#184053"/>
<stop offset="1" stop-color="#184053" stop-opacity="0"/>
</linearGradient>
<linearGradient id="paint35_linear" x1="279.241" y1="243.938" x2="279.241" y2="59.4648" gradientUnits="userSpaceOnUse">
<stop stop-color="#184053"/>
<stop offset="1" stop-color="#184053" stop-opacity="0"/>
</linearGradient>
<linearGradient id="paint36_linear" x1="183.221" y1="341.4" x2="183.221" y2="241.117" gradientUnits="userSpaceOnUse">
<stop stop-color="#184053"/>
<stop offset="1" stop-color="#184053" stop-opacity="0"/>
</linearGradient>
<linearGradient id="paint37_linear" x1="183.222" y1="316.305" x2="183.222" y2="131.834" gradientUnits="userSpaceOnUse">
<stop stop-color="#184053"/>
<stop offset="1" stop-color="#184053" stop-opacity="0"/>
</linearGradient>
<linearGradient id="paint38_linear" x1="37.864" y1="321.501" x2="37.864" y2="221.219" gradientUnits="userSpaceOnUse">
<stop stop-color="#184053"/>
<stop offset="1" stop-color="#184053" stop-opacity="0"/>
</linearGradient>
<linearGradient id="paint39_linear" x1="37.864" y1="296.408" x2="37.864" y2="111.936" gradientUnits="userSpaceOnUse">
<stop stop-color="#184053"/>
<stop offset="1" stop-color="#184053" stop-opacity="0"/>
</linearGradient>
<linearGradient id="paint40_linear" x1="258.693" y1="149.877" x2="258.693" y2="49.5639" gradientUnits="userSpaceOnUse">
<stop stop-color="#184053"/>
<stop offset="1" stop-color="#184053" stop-opacity="0"/>
</linearGradient>
<linearGradient id="paint41_linear" x1="258.693" y1="149.358" x2="258.693" y2="47.2935" gradientUnits="userSpaceOnUse">
<stop stop-color="#184053"/>
<stop offset="1" stop-color="#184053" stop-opacity="0"/>
</linearGradient>
<linearGradient id="paint42_linear" x1="100.046" y1="222.624" x2="100.046" y2="122.372" gradientUnits="userSpaceOnUse">
<stop stop-color="#184053"/>
<stop offset="1" stop-color="#184053" stop-opacity="0"/>
</linearGradient>
<linearGradient id="paint43_linear" x1="100.046" y1="222.086" x2="100.046" y2="120.022" gradientUnits="userSpaceOnUse">
<stop stop-color="#184053"/>
<stop offset="1" stop-color="#184053" stop-opacity="0"/>
</linearGradient>
<linearGradient id="paint44_linear" x1="1270.59" y1="287.955" x2="1270.59" y2="231.663" gradientUnits="userSpaceOnUse">
<stop stop-color="#184053"/>
<stop offset="1" stop-color="#184053" stop-opacity="0"/>
</linearGradient>
<linearGradient id="paint45_linear" x1="1270.59" y1="292.902" x2="1270.59" y2="253.634" gradientUnits="userSpaceOnUse">
<stop stop-color="#184053"/>
<stop offset="1" stop-color="#184053" stop-opacity="0"/>
</linearGradient>
<linearGradient id="paint46_linear" x1="1178.63" y1="215.479" x2="1178.63" y2="159.169" gradientUnits="userSpaceOnUse">
<stop stop-color="#184053"/>
<stop offset="1" stop-color="#184053" stop-opacity="0"/>
</linearGradient>
<linearGradient id="paint47_linear" x1="1178.63" y1="202.304" x2="1178.63" y2="100.669" gradientUnits="userSpaceOnUse">
<stop stop-color="#184053"/>
<stop offset="1" stop-color="#184053" stop-opacity="0"/>
</linearGradient>
<linearGradient id="paint48_linear" x1="1436.43" y1="235.2" x2="1436.43" y2="178.873" gradientUnits="userSpaceOnUse">
<stop stop-color="#184053"/>
<stop offset="1" stop-color="#184053" stop-opacity="0"/>
</linearGradient>
<linearGradient id="paint49_linear" x1="1436.43" y1="222.031" x2="1436.43" y2="120.392" gradientUnits="userSpaceOnUse">
<stop stop-color="#184053"/>
<stop offset="1" stop-color="#184053" stop-opacity="0"/>
</linearGradient>
<linearGradient id="paint50_linear" x1="1137.99" y1="103.808" x2="1137.99" y2="47.498" gradientUnits="userSpaceOnUse">
<stop stop-color="#184053"/>
<stop offset="1" stop-color="#184053" stop-opacity="0"/>
</linearGradient>
<linearGradient id="paint51_linear" x1="1137.99" y1="103.808" x2="1137.99" y2="47.4987" gradientUnits="userSpaceOnUse">
<stop stop-color="#184053"/>
<stop offset="1" stop-color="#184053" stop-opacity="0"/>
</linearGradient>
<linearGradient id="paint52_linear" x1="1248.35" y1="160.202" x2="1248.35" y2="103.875" gradientUnits="userSpaceOnUse">
<stop stop-color="#184053"/>
<stop offset="1" stop-color="#184053" stop-opacity="0"/>
</linearGradient>
<linearGradient id="paint53_linear" x1="1248.35" y1="160.206" x2="1248.35" y2="103.897" gradientUnits="userSpaceOnUse">
<stop stop-color="#184053"/>
<stop offset="1" stop-color="#184053" stop-opacity="0"/>
</linearGradient>
<linearGradient id="paint54_linear" x1="1392.45" y1="136.026" x2="1392.45" y2="79.7166" gradientUnits="userSpaceOnUse">
<stop stop-color="#184053"/>
<stop offset="1" stop-color="#184053" stop-opacity="0"/>
</linearGradient>
<linearGradient id="paint55_linear" x1="1392.45" y1="136.025" x2="1392.45" y2="79.7169" gradientUnits="userSpaceOnUse">
<stop stop-color="#184053"/>
<stop offset="1" stop-color="#184053" stop-opacity="0"/>
</linearGradient>
<linearGradient id="paint56_linear" x1="1361.21" y1="165.852" x2="1361.21" y2="109.543" gradientUnits="userSpaceOnUse">
<stop stop-color="#184053"/>
<stop offset="1" stop-color="#184053" stop-opacity="0"/>
</linearGradient>
<linearGradient id="paint57_linear" x1="1361.21" y1="165.852" x2="1361.21" y2="109.543" gradientUnits="userSpaceOnUse">
<stop stop-color="#184053"/>
<stop offset="1" stop-color="#184053" stop-opacity="0"/>
</linearGradient>
<linearGradient id="paint58_linear" x1="1237.89" y1="206.508" x2="1237.89" y2="106.226" gradientUnits="userSpaceOnUse">
<stop stop-color="#184053"/>
<stop offset="1" stop-color="#184053" stop-opacity="0"/>
</linearGradient>
<linearGradient id="paint59_linear" x1="1237.89" y1="206.509" x2="1237.89" y2="106.228" gradientUnits="userSpaceOnUse">
<stop stop-color="#184053"/>
<stop offset="1" stop-color="#184053" stop-opacity="0"/>
</linearGradient>
<linearGradient id="paint60_linear" x1="1258.64" y1="181.893" x2="1258.64" y2="81.6105" gradientUnits="userSpaceOnUse">
<stop stop-color="#184053"/>
<stop offset="1" stop-color="#184053" stop-opacity="0"/>
</linearGradient>
<linearGradient id="paint61_linear" x1="1258.64" y1="187.921" x2="1258.64" y2="107.865" gradientUnits="userSpaceOnUse">
<stop stop-color="#184053"/>
<stop offset="1" stop-color="#184053" stop-opacity="0"/>
</linearGradient>
<linearGradient id="paint62_linear" x1="1207.78" y1="324.225" x2="1207.78" y2="223.942" gradientUnits="userSpaceOnUse">
<stop stop-color="#184053"/>
<stop offset="1" stop-color="#184053" stop-opacity="0"/>
</linearGradient>
<linearGradient id="paint63_linear" x1="1207.78" y1="299.13" x2="1207.78" y2="114.657" gradientUnits="userSpaceOnUse">
<stop stop-color="#184053"/>
<stop offset="1" stop-color="#184053" stop-opacity="0"/>
</linearGradient>
<linearGradient id="paint64_linear" x1="1311.76" y1="217.005" x2="1311.76" y2="116.692" gradientUnits="userSpaceOnUse">
<stop stop-color="#184053"/>
<stop offset="1" stop-color="#184053" stop-opacity="0"/>
</linearGradient>
<linearGradient id="paint65_linear" x1="1311.76" y1="191.919" x2="1311.76" y2="7.44617" gradientUnits="userSpaceOnUse">
<stop stop-color="#184053"/>
<stop offset="1" stop-color="#184053" stop-opacity="0"/>
</linearGradient>
<linearGradient id="paint66_linear" x1="1365.88" y1="230.822" x2="1365.88" y2="130.512" gradientUnits="userSpaceOnUse">
<stop stop-color="#184053"/>
<stop offset="1" stop-color="#184053" stop-opacity="0"/>
</linearGradient>
<linearGradient id="paint67_linear" x1="1365.88" y1="205.738" x2="1365.88" y2="21.2637" gradientUnits="userSpaceOnUse">
<stop stop-color="#184053"/>
<stop offset="1" stop-color="#184053" stop-opacity="0"/>
</linearGradient>
<linearGradient id="paint68_linear" x1="1147.46" y1="378.582" x2="1147.46" y2="278.301" gradientUnits="userSpaceOnUse">
<stop stop-color="#184053"/>
<stop offset="1" stop-color="#184053" stop-opacity="0"/>
</linearGradient>
<linearGradient id="paint69_linear" x1="1147.46" y1="353.487" x2="1147.46" y2="169.016" gradientUnits="userSpaceOnUse">
<stop stop-color="#184053"/>
<stop offset="1" stop-color="#184053" stop-opacity="0"/>
</linearGradient>
<linearGradient id="paint70_linear" x1="1429.48" y1="399.159" x2="1429.48" y2="214.685" gradientUnits="userSpaceOnUse">
<stop stop-color="#184053"/>
<stop offset="1" stop-color="#184053" stop-opacity="0"/>
</linearGradient>
<linearGradient id="paint71_linear" x1="1375.6" y1="280.782" x2="1375.6" y2="180.53" gradientUnits="userSpaceOnUse">
<stop stop-color="#184053"/>
<stop offset="1" stop-color="#184053" stop-opacity="0"/>
</linearGradient>
<linearGradient id="paint72_linear" x1="1375.6" y1="255.678" x2="1375.6" y2="71.2055" gradientUnits="userSpaceOnUse">
<stop stop-color="#184053"/>
<stop offset="1" stop-color="#184053" stop-opacity="0"/>
</linearGradient>
<linearGradient id="paint73_linear" x1="1100.79" y1="312.606" x2="1100.79" y2="212.324" gradientUnits="userSpaceOnUse">
<stop stop-color="#184053"/>
<stop offset="1" stop-color="#184053" stop-opacity="0"/>
</linearGradient>
<linearGradient id="paint74_linear" x1="1100.79" y1="312.075" x2="1100.79" y2="210.013" gradientUnits="userSpaceOnUse">
<stop stop-color="#184053"/>
<stop offset="1" stop-color="#184053" stop-opacity="0"/>
</linearGradient>
<linearGradient id="paint75_linear" x1="1162.26" y1="163.743" x2="1162.26" y2="63.4608" gradientUnits="userSpaceOnUse">
<stop stop-color="#184053"/>
<stop offset="1" stop-color="#184053" stop-opacity="0"/>
</linearGradient>
<linearGradient id="paint76_linear" x1="1162.26" y1="171.603" x2="1162.26" y2="97.6888" gradientUnits="userSpaceOnUse">
<stop stop-color="#184053"/>
<stop offset="1" stop-color="#184053" stop-opacity="0"/>
</linearGradient>
<linearGradient id="paint77_linear" x1="1356.62" y1="338.338" x2="1356.62" y2="238.086" gradientUnits="userSpaceOnUse">
<stop stop-color="#184053"/>
<stop offset="1" stop-color="#184053" stop-opacity="0"/>
</linearGradient>
<linearGradient id="paint78_linear" x1="1356.62" y1="337.797" x2="1356.62" y2="235.733" gradientUnits="userSpaceOnUse">
<stop stop-color="#184053"/>
<stop offset="1" stop-color="#184053" stop-opacity="0"/>
</linearGradient>
</defs>
</svg>
