<svg width="38" height="36" viewBox="0 0 38 36" fill="none" xmlns="http://www.w3.org/2000/svg">
<path opacity="0.3" fill-rule="evenodd" clip-rule="evenodd" d="M31.3731 21V3C26.3342 3 22.2494 7.08484 22.2494 12.1237V18.2573L12.8647 8.99997C10.4894 11.3431 10.4894 15.1421 12.8647 17.4852L20.6952 25.2095L24.9625 21H31.3731Z" fill="#99EFD0"/>
<path fill-rule="evenodd" clip-rule="evenodd" d="M7.48125 18C4.71983 18 2.48125 20.2386 2.48125 23V26.5C2.48125 29.2614 4.71983 31.5 7.48125 31.5H30.935C33.6964 31.5 35.935 29.2614 35.935 26.5V23C35.935 20.2386 33.6964 18 30.935 18H7.48125ZM32.8937 24.75C32.8937 25.9926 31.8725 27 30.6128 27C29.3531 27 28.3319 25.9926 28.3319 24.75C28.3319 23.5074 29.3531 22.5 30.6128 22.5C31.8725 22.5 32.8937 23.5074 32.8937 24.75Z" fill="#99EFD0"/>
</svg>
