<svg width="38" height="36" viewBox="0 0 38 36" fill="none" xmlns="http://www.w3.org/2000/svg">
<path opacity="0.3" fill-rule="evenodd" clip-rule="evenodd" d="M11.913 28.3938L9.97068 30.7023C6.16614 27.5875 3.92029 22.9731 3.92029 18C3.92029 13.0339 6.15989 8.42518 9.95542 5.3103L11.9005 7.61653C8.79226 10.1673 6.96153 13.9346 6.96153 18C6.96153 22.071 8.79738 25.843 11.913 28.3938ZM26.3401 28.3938L28.2824 30.7023C32.0869 27.5875 34.3328 22.9731 34.3328 18C34.3328 13.0339 32.0932 8.42518 28.2976 5.3103L26.3526 7.61653C29.4608 10.1673 31.2915 13.9346 31.2915 18C31.2915 22.071 29.4557 25.843 26.3401 28.3938ZM22.4392 23.7899L24.374 26.1044C26.81 24.123 28.2503 21.1761 28.2503 18C28.2503 14.8344 26.8195 11.8961 24.3972 9.91448L22.4557 12.2237C24.1886 13.6413 25.209 15.7368 25.209 18C25.209 20.2706 24.1818 22.3724 22.4392 23.7899ZM13.879 26.1044L15.8138 23.7899C14.0712 22.3724 13.044 20.2706 13.044 18C13.044 15.7368 14.0644 13.6413 15.7973 12.2237L13.8559 9.91448C11.4335 11.8961 10.0028 14.8344 10.0028 18C10.0028 21.1761 11.443 24.123 13.879 26.1044Z" fill="#99EFD0"/>
<path fill-rule="evenodd" clip-rule="evenodd" d="M19.1265 21C20.8061 21 22.1678 19.6568 22.1678 18C22.1678 16.3431 20.8061 15 19.1265 15C17.4469 15 16.0853 16.3431 16.0853 18C16.0853 19.6568 17.4469 21 19.1265 21Z" fill="#99EFD0"/>
</svg>
